<svg xmlns="http://www.w3.org/2000/svg" xmlns:xlink="http://www.w3.org/1999/xlink" width="500" zoomAndPan="magnify" viewBox="0 0 375 374.999991" height="500" preserveAspectRatio="xMidYMid meet" version="1.0"><path fill="#ffffff" d="M 375 210.15625 L 375 163.28125 L 328.125 155.46875 C 325 138.28125 317.1875 124.21875 309.375 110.15625 L 335.9375 71.09375 L 303.125 38.28125 L 264.0625 66.40625 C 250 57.03125 234.375 50.78125 218.75 47.65625 L 210.9375 0.78125 L 164.0625 0.78125 L 156.25 46.09375 C 139.0625 49.21875 125 55.46875 110.9375 64.84375 L 71.875 36.71875 L 39.0625 71.09375 L 65.625 110.15625 C 57.8125 122.65625 50 138.28125 46.875 155.46875 L 0 163.28125 L 0 210.15625 L 46.875 217.96875 C 50 235.15625 57.8125 249.21875 65.625 263.28125 L 37.5 302.34375 L 70.3125 335.15625 L 109.375 308.59375 C 123.4375 317.96875 139.0625 324.21875 154.6875 327.34375 L 162.5 374.21875 L 209.375 374.21875 L 217.1875 327.34375 C 234.375 324.21875 250 316.40625 262.5 308.59375 L 301.5625 335.15625 L 334.375 302.34375 L 306.25 263.28125 C 315.625 249.21875 321.875 233.59375 325 217.96875 Z M 187.5 280.46875 C 135.9375 280.46875 93.75 238.28125 93.75 186.71875 C 93.75 135.15625 135.9375 92.96875 187.5 92.96875 C 239.0625 92.96875 281.25 135.15625 281.25 186.71875 C 281.25 238.28125 239.0625 280.46875 187.5 280.46875 Z M 187.5 280.46875 " fill-opacity="1" fill-rule="nonzero"/><path fill="#ffffff" d="M 234.375 186.71875 C 234.375 188.253906 234.300781 189.785156 234.148438 191.3125 C 234 192.839844 233.773438 194.359375 233.472656 195.863281 C 233.175781 197.371094 232.800781 198.855469 232.355469 200.324219 C 231.910156 201.796875 231.394531 203.238281 230.808594 204.65625 C 230.21875 206.074219 229.5625 207.460938 228.839844 208.816406 C 228.117188 210.167969 227.328125 211.484375 226.476562 212.761719 C 225.621094 214.039062 224.707031 215.269531 223.734375 216.457031 C 222.761719 217.644531 221.730469 218.777344 220.644531 219.863281 C 219.558594 220.949219 218.425781 221.980469 217.238281 222.953125 C 216.050781 223.925781 214.820312 224.839844 213.542969 225.695312 C 212.265625 226.546875 210.949219 227.335938 209.597656 228.058594 C 208.242188 228.78125 206.855469 229.4375 205.4375 230.027344 C 204.019531 230.613281 202.578125 231.128906 201.105469 231.574219 C 199.636719 232.019531 198.152344 232.394531 196.644531 232.691406 C 195.140625 232.992188 193.621094 233.21875 192.09375 233.367188 C 190.566406 233.519531 189.035156 233.59375 187.5 233.59375 C 185.964844 233.59375 184.433594 233.519531 182.90625 233.367188 C 181.378906 233.21875 179.859375 232.992188 178.355469 232.691406 C 176.847656 232.394531 175.363281 232.019531 173.894531 231.574219 C 172.421875 231.128906 170.980469 230.613281 169.5625 230.027344 C 168.144531 229.4375 166.757812 228.78125 165.402344 228.058594 C 164.050781 227.335938 162.734375 226.546875 161.457031 225.695312 C 160.179688 224.839844 158.949219 223.925781 157.761719 222.953125 C 156.574219 221.980469 155.441406 220.949219 154.355469 219.863281 C 153.269531 218.777344 152.238281 217.644531 151.265625 216.457031 C 150.292969 215.269531 149.378906 214.039062 148.523438 212.761719 C 147.671875 211.484375 146.882812 210.167969 146.160156 208.816406 C 145.4375 207.460938 144.78125 206.074219 144.191406 204.65625 C 143.605469 203.238281 143.089844 201.796875 142.644531 200.324219 C 142.199219 198.855469 141.824219 197.371094 141.527344 195.863281 C 141.226562 194.359375 141 192.839844 140.851562 191.3125 C 140.699219 189.785156 140.625 188.253906 140.625 186.71875 C 140.625 185.183594 140.699219 183.652344 140.851562 182.125 C 141 180.597656 141.226562 179.078125 141.527344 177.574219 C 141.824219 176.066406 142.199219 174.582031 142.644531 173.113281 C 143.089844 171.640625 143.605469 170.199219 144.191406 168.78125 C 144.78125 167.363281 145.4375 165.976562 146.160156 164.621094 C 146.882812 163.269531 147.671875 161.953125 148.523438 160.675781 C 149.378906 159.398438 150.292969 158.167969 151.265625 156.980469 C 152.238281 155.792969 153.269531 154.660156 154.355469 153.574219 C 155.441406 152.488281 156.574219 151.457031 157.761719 150.484375 C 158.949219 149.511719 160.179688 148.597656 161.457031 147.742188 C 162.734375 146.890625 164.050781 146.101562 165.402344 145.378906 C 166.757812 144.65625 168.144531 144 169.5625 143.410156 C 170.980469 142.824219 172.421875 142.308594 173.894531 141.863281 C 175.363281 141.417969 176.847656 141.042969 178.355469 140.746094 C 179.859375 140.445312 181.378906 140.21875 182.90625 140.070312 C 184.433594 139.917969 185.964844 139.84375 187.5 139.84375 C 189.035156 139.84375 190.566406 139.917969 192.09375 140.070312 C 193.621094 140.21875 195.140625 140.445312 196.644531 140.746094 C 198.152344 141.042969 199.636719 141.417969 201.105469 141.863281 C 202.578125 142.308594 204.019531 142.824219 205.4375 143.410156 C 206.855469 144 208.242188 144.65625 209.597656 145.378906 C 210.949219 146.101562 212.265625 146.890625 213.542969 147.742188 C 214.820312 148.597656 216.050781 149.511719 217.238281 150.484375 C 218.425781 151.457031 219.558594 152.488281 220.644531 153.574219 C 221.730469 154.660156 222.761719 155.792969 223.734375 156.980469 C 224.707031 158.167969 225.621094 159.398438 226.476562 160.675781 C 227.328125 161.953125 228.117188 163.269531 228.839844 164.621094 C 229.5625 165.976562 230.21875 167.363281 230.808594 168.78125 C 231.394531 170.199219 231.910156 171.640625 232.355469 173.113281 C 232.800781 174.582031 233.175781 176.066406 233.472656 177.574219 C 233.773438 179.078125 234 180.597656 234.148438 182.125 C 234.300781 183.652344 234.375 185.183594 234.375 186.71875 Z M 234.375 186.71875 " fill-opacity="1" fill-rule="nonzero"/></svg>