<svg xmlns="http://www.w3.org/2000/svg" xmlns:xlink="http://www.w3.org/1999/xlink" width="450" zoomAndPan="magnify" viewBox="0 0 337.5 74.999997" height="100" preserveAspectRatio="xMidYMid meet" version="1.0"><defs><g/><clipPath id="0729b7a7e7"><path d="M 74 61 L 87.804688 61 L 87.804688 74.945312 L 74 74.945312 Z M 74 61 " clip-rule="nonzero"/></clipPath><clipPath id="4f67c2ab8d"><path d="M 11.304688 0.0546875 L 82 0.0546875 L 82 71 L 11.304688 71 Z M 11.304688 0.0546875 " clip-rule="nonzero"/></clipPath><clipPath id="0b3f1af352"><path d="M 23 0.0546875 L 85 0.0546875 L 85 46 L 23 46 Z M 23 0.0546875 " clip-rule="nonzero"/></clipPath><clipPath id="3a3a0efa44"><path d="M 13 23 L 80 23 L 80 74.945312 L 13 74.945312 Z M 13 23 " clip-rule="nonzero"/></clipPath></defs><g clip-path="url(#0729b7a7e7)"><path fill="#ffffff" d="M 85.210938 72.195312 C 84.90625 72.496094 84.578125 72.769531 84.21875 73.003906 C 83.863281 73.242188 83.488281 73.441406 83.089844 73.605469 C 82.695312 73.769531 82.285156 73.894531 81.863281 73.976562 C 81.445312 74.058594 81.019531 74.101562 80.589844 74.101562 C 80.160156 74.101562 79.738281 74.058594 79.316406 73.976562 C 78.894531 73.894531 78.488281 73.769531 78.089844 73.605469 C 77.695312 73.441406 77.316406 73.242188 76.960938 73.003906 C 76.605469 72.769531 76.273438 72.496094 75.96875 72.195312 C 75.441406 71.671875 75.015625 71.070312 74.691406 70.398438 C 75.550781 70.445312 76.402344 70.375 77.246094 70.191406 C 78.378906 69.972656 79.347656 69.449219 80.152344 68.621094 L 79.769531 68.242188 C 78.996094 68.890625 78.105469 69.261719 77.097656 69.351562 C 76.140625 69.457031 75.191406 69.414062 74.25 69.222656 C 74.175781 68.949219 74.121094 68.667969 74.085938 68.386719 C 74.050781 68.105469 74.035156 67.820312 74.035156 67.539062 C 74.039062 67.253906 74.058594 66.96875 74.097656 66.6875 C 74.136719 66.40625 74.191406 66.128906 74.269531 65.855469 C 74.34375 65.582031 74.4375 65.3125 74.546875 65.050781 C 74.65625 64.789062 74.785156 64.535156 74.929688 64.289062 C 75.074219 64.042969 75.234375 63.808594 75.40625 63.582031 C 75.582031 63.359375 75.769531 63.144531 75.972656 62.945312 C 76.175781 62.746094 76.390625 62.558594 76.617188 62.386719 C 76.847656 62.214844 77.082031 62.058594 77.332031 61.917969 C 77.578125 61.777344 77.835938 61.652344 78.097656 61.546875 C 78.363281 61.4375 78.632812 61.347656 78.910156 61.277344 C 79.183594 61.203125 79.464844 61.148438 79.746094 61.113281 C 80.03125 61.078125 80.316406 61.058594 80.601562 61.0625 C 80.886719 61.0625 81.167969 61.082031 81.453125 61.121094 C 81.734375 61.160156 82.015625 61.214844 82.289062 61.289062 C 82.566406 61.363281 82.832031 61.457031 83.097656 61.566406 C 83.359375 61.675781 83.613281 61.800781 83.863281 61.945312 C 84.109375 62.089844 84.34375 62.246094 84.570312 62.421875 C 84.796875 62.59375 85.007812 62.78125 85.210938 62.984375 C 85.410156 63.183594 85.597656 63.398438 85.773438 63.625 C 85.945312 63.851562 86.101562 64.085938 86.246094 64.335938 C 86.386719 64.582031 86.511719 64.835938 86.621094 65.097656 C 86.726562 65.363281 86.820312 65.628906 86.890625 65.90625 C 86.964844 66.179688 87.019531 66.457031 87.058594 66.742188 C 87.09375 67.023438 87.113281 67.304688 87.109375 67.589844 C 87.109375 67.875 87.089844 68.15625 87.054688 68.4375 C 87.015625 68.722656 86.960938 69 86.886719 69.273438 C 86.8125 69.546875 86.71875 69.816406 86.609375 70.078125 C 86.5 70.339844 86.375 70.59375 86.230469 70.839844 C 86.085938 71.085938 85.929688 71.324219 85.753906 71.546875 C 85.582031 71.773438 85.390625 71.988281 85.191406 72.1875 Z M 85.210938 72.195312 " fill-opacity="1" fill-rule="nonzero"/></g><path fill="#ffffff" d="M 80.167969 68.625 C 79.363281 69.453125 78.394531 69.976562 77.261719 70.195312 C 76.417969 70.378906 75.570312 70.449219 74.707031 70.402344 C 74.535156 70.027344 74.398438 69.636719 74.300781 69.234375 C 75.246094 69.425781 76.195312 69.46875 77.152344 69.363281 C 78.160156 69.273438 79.050781 68.90625 79.820312 68.253906 Z M 80.167969 68.625 " fill-opacity="1" fill-rule="nonzero"/><g clip-path="url(#4f67c2ab8d)"><path fill="#ffffff" d="M 80.167969 68.625 C 79.363281 69.453125 78.394531 69.976562 77.261719 70.195312 C 76.417969 70.378906 75.570312 70.449219 74.707031 70.402344 C 74.464844 70.402344 74.222656 70.375 73.980469 70.355469 C 73.707031 70.34375 73.433594 70.3125 73.164062 70.265625 L 72.351562 70.140625 C 71.828125 70.019531 71.285156 69.933594 70.769531 69.785156 C 70.25 69.640625 69.726562 69.511719 69.21875 69.339844 C 68.707031 69.167969 68.199219 69.003906 67.691406 68.824219 C 63.660156 67.355469 59.921875 65.289062 56.292969 63.070312 C 49.121094 58.476562 42.484375 53.210938 36.386719 47.269531 C 33.332031 44.328125 30.378906 41.273438 27.617188 38.042969 C 26.222656 36.4375 24.863281 34.796875 23.546875 33.113281 C 22.25 31.449219 20.984375 29.734375 19.773438 27.960938 C 17.28125 24.398438 15.167969 20.625 13.4375 16.636719 C 13.230469 16.121094 13.03125 15.609375 12.835938 15.078125 C 12.640625 14.546875 12.457031 14.019531 12.292969 13.457031 C 12.132812 12.894531 11.992188 12.386719 11.84375 11.820312 C 11.691406 11.25 11.59375 10.675781 11.523438 10.066406 C 11.320312 8.792969 11.320312 7.515625 11.523438 6.242188 C 11.761719 4.691406 12.421875 3.347656 13.511719 2.21875 C 14.648438 1.132812 15.992188 0.472656 17.550781 0.238281 C 18.828125 0.0390625 20.105469 0.0390625 21.382812 0.238281 C 22 0.304688 22.554688 0.445312 23.140625 0.554688 C 23.730469 0.664062 24.273438 0.824219 24.808594 1.007812 C 25.339844 1.191406 25.894531 1.34375 26.433594 1.542969 C 26.976562 1.742188 27.480469 1.949219 27.996094 2.148438 C 31.992188 3.871094 35.777344 5.972656 39.351562 8.457031 C 41.125 9.671875 42.847656 10.929688 44.535156 12.238281 C 46.21875 13.542969 47.871094 14.890625 49.484375 16.292969 C 52.738281 19.046875 55.789062 21.972656 58.742188 25.035156 C 64.691406 31.101562 69.96875 37.703125 74.574219 44.835938 C 76.800781 48.445312 78.867188 52.179688 80.347656 56.195312 C 80.53125 56.695312 80.710938 57.195312 80.863281 57.714844 C 81.015625 58.234375 81.175781 58.742188 81.3125 59.261719 C 81.445312 59.78125 81.546875 60.308594 81.667969 60.835938 C 81.667969 60.941406 81.699219 61.054688 81.71875 61.160156 C 81.277344 61.082031 80.832031 61.054688 80.382812 61.070312 C 79.964844 59.617188 79.433594 58.203125 78.792969 56.835938 C 77.007812 53.113281 74.886719 49.59375 72.433594 46.277344 C 70.03125 42.914062 67.453125 39.695312 64.699219 36.613281 C 61.949219 33.519531 59.085938 30.535156 56.101562 27.664062 C 50.101562 21.984375 43.769531 16.609375 36.898438 12.144531 C 33.453125 9.925781 29.914062 7.84375 26.25 6.367188 C 25.792969 6.183594 25.332031 5.992188 24.871094 5.847656 C 24.414062 5.703125 23.953125 5.53125 23.5 5.398438 C 23.046875 5.265625 22.582031 5.160156 22.125 5.035156 C 21.667969 4.914062 21.222656 4.84375 20.785156 4.804688 C 19.972656 4.679688 19.15625 4.679688 18.34375 4.804688 C 17.765625 4.878906 17.253906 5.109375 16.816406 5.492188 C 16.421875 5.929688 16.183594 6.441406 16.109375 7.023438 C 15.976562 7.835938 15.976562 8.648438 16.109375 9.457031 C 16.144531 9.890625 16.257812 10.347656 16.335938 10.796875 C 16.414062 11.246094 16.546875 11.703125 16.703125 12.164062 C 16.859375 12.621094 16.980469 13.078125 17.152344 13.535156 C 17.320312 13.988281 17.492188 14.445312 17.671875 14.90625 C 19.15625 18.554688 21.246094 22.085938 23.46875 25.5 C 27.949219 32.351562 33.355469 38.660156 39.054688 44.636719 C 41.929688 47.613281 44.925781 50.46875 48.035156 53.207031 C 51.125 55.960938 54.359375 58.539062 57.730469 60.945312 C 61.066406 63.386719 64.605469 65.496094 68.34375 67.273438 C 69.757812 67.933594 71.21875 68.476562 72.726562 68.894531 C 73.1875 69.019531 73.65625 69.121094 74.125 69.203125 L 74.277344 69.230469 C 75.21875 69.421875 76.171875 69.464844 77.125 69.359375 C 78.132812 69.269531 79.023438 68.902344 79.796875 68.25 Z M 80.167969 68.625 " fill-opacity="1" fill-rule="nonzero"/></g><path fill="#ffffff" d="M 24.867188 55.789062 C 24.382812 56.273438 23.835938 56.675781 23.222656 56.988281 C 22.609375 57.300781 21.964844 57.515625 21.285156 57.625 C 20.605469 57.734375 19.921875 57.734375 19.242188 57.628906 C 18.5625 57.523438 17.914062 57.316406 17.300781 57.003906 C 18.082031 55.285156 18.957031 53.613281 19.921875 51.992188 L 19.515625 51.6875 C 18.527344 53.308594 17.589844 54.972656 16.71875 56.671875 C 16.320312 56.417969 15.957031 56.125 15.625 55.789062 C 15.34375 55.511719 15.085938 55.210938 14.859375 54.890625 C 14.632812 54.566406 14.4375 54.226562 14.269531 53.871094 C 14.105469 53.511719 13.972656 53.144531 13.875 52.761719 C 13.777344 52.378906 13.714844 51.992188 13.6875 51.597656 C 13.660156 51.207031 13.667969 50.8125 13.710938 50.421875 C 13.757812 50.03125 13.835938 49.644531 13.949219 49.269531 C 14.0625 48.890625 14.210938 48.527344 14.390625 48.175781 C 14.570312 47.828125 14.78125 47.496094 15.019531 47.183594 C 15.261719 46.871094 15.527344 46.582031 15.820312 46.316406 C 16.113281 46.050781 16.429688 45.816406 16.765625 45.609375 C 17.101562 45.402344 17.453125 45.226562 17.820312 45.082031 C 18.1875 44.9375 18.566406 44.828125 18.953125 44.75 C 19.34375 44.675781 19.734375 44.636719 20.128906 44.632812 C 20.523438 44.625 20.917969 44.65625 21.304688 44.722656 C 21.695312 44.789062 22.078125 44.890625 22.449219 45.023438 C 22.820312 45.160156 23.175781 45.328125 23.515625 45.527344 C 23.699219 45.632812 23.875 45.746094 24.050781 45.867188 C 24.339844 46.074219 24.609375 46.304688 24.863281 46.554688 C 25.167969 46.859375 25.441406 47.1875 25.683594 47.542969 C 25.921875 47.898438 26.125 48.277344 26.289062 48.671875 C 26.453125 49.070312 26.578125 49.476562 26.664062 49.898438 C 26.75 50.316406 26.789062 50.742188 26.789062 51.171875 C 26.789062 51.601562 26.75 52.023438 26.664062 52.445312 C 26.582031 52.867188 26.457031 53.273438 26.292969 53.671875 C 26.125 54.066406 25.925781 54.441406 25.683594 54.800781 C 25.445312 55.15625 25.171875 55.484375 24.867188 55.789062 Z M 24.867188 55.789062 " fill-opacity="1" fill-rule="nonzero"/><path fill="#ffffff" d="M 17.300781 56.980469 C 17.113281 56.890625 16.929688 56.789062 16.753906 56.671875 C 17.625 54.972656 18.566406 53.316406 19.550781 51.6875 L 19.960938 51.992188 C 18.980469 53.605469 18.097656 55.269531 17.300781 56.980469 Z M 17.300781 56.980469 " fill-opacity="1" fill-rule="nonzero"/><path fill="#ffffff" d="M 83.925781 28.273438 C 83.410156 28.785156 82.828125 29.199219 82.179688 29.515625 C 81.527344 29.835938 80.84375 30.039062 80.125 30.132812 C 79.40625 30.222656 78.691406 30.195312 77.980469 30.050781 C 77.269531 29.90625 76.605469 29.652344 75.980469 29.285156 C 76.226562 28.914062 76.46875 28.546875 76.707031 28.171875 C 77.601562 26.820312 78.472656 25.441406 79.316406 24.035156 L 78.886719 23.789062 C 78.070312 25.183594 77.175781 26.542969 76.257812 27.875 C 76.007812 28.238281 75.75 28.601562 75.484375 28.964844 C 75.195312 28.757812 74.921875 28.53125 74.671875 28.277344 C 74.132812 27.738281 73.703125 27.125 73.378906 26.4375 C 73.054688 25.746094 72.859375 25.023438 72.789062 24.265625 C 72.722656 23.507812 72.785156 22.761719 72.976562 22.023438 C 73.171875 21.289062 73.484375 20.605469 73.917969 19.980469 C 74.351562 19.355469 74.878906 18.820312 75.503906 18.378906 C 76.125 17.9375 76.800781 17.613281 77.539062 17.40625 C 78.273438 17.199219 79.019531 17.125 79.78125 17.183594 C 80.542969 17.238281 81.273438 17.421875 81.96875 17.734375 C 82.191406 17.832031 82.402344 17.941406 82.609375 18.066406 C 83.042969 18.316406 83.441406 18.609375 83.808594 18.953125 C 84.171875 19.292969 84.492188 19.671875 84.769531 20.085938 C 85.046875 20.5 85.273438 20.941406 85.449219 21.410156 C 85.625 21.875 85.746094 22.355469 85.808594 22.851562 C 85.871094 23.347656 85.878906 23.839844 85.828125 24.335938 C 85.777344 24.832031 85.671875 25.316406 85.511719 25.789062 C 85.347656 26.261719 85.132812 26.707031 84.867188 27.128906 C 84.601562 27.554688 84.292969 27.941406 83.9375 28.289062 Z M 83.925781 28.273438 " fill-opacity="1" fill-rule="nonzero"/><path fill="#ffffff" d="M 75.984375 29.285156 C 75.816406 29.1875 75.652344 29.074219 75.488281 28.960938 C 75.753906 28.597656 76.011719 28.234375 76.261719 27.871094 C 77.179688 26.539062 78.0625 25.179688 78.890625 23.785156 L 79.320312 24.03125 C 78.480469 25.425781 77.609375 26.804688 76.710938 28.167969 C 76.472656 28.550781 76.230469 28.914062 75.984375 29.285156 Z M 75.984375 29.285156 " fill-opacity="1" fill-rule="nonzero"/><path fill="#ffffff" d="M 82.609375 18.066406 C 82.410156 17.949219 82.203125 17.839844 81.992188 17.746094 C 82.183594 17.300781 82.355469 16.863281 82.523438 16.421875 C 83.332031 14.421875 83.847656 12.347656 84.070312 10.199219 C 84.175781 9.179688 84.109375 8.167969 83.871094 7.171875 C 83.679688 6.273438 83.226562 5.539062 82.511719 4.964844 L 84.238281 3.238281 C 85.089844 4.296875 85.566406 5.503906 85.667969 6.859375 C 85.765625 8.042969 85.683594 9.210938 85.417969 10.371094 C 85.328125 10.933594 85.160156 11.476562 85.011719 12.019531 C 84.859375 12.566406 84.691406 13.101562 84.492188 13.621094 C 84.121094 14.671875 83.699219 15.695312 83.242188 16.703125 C 83.015625 17.15625 82.820312 17.609375 82.609375 18.066406 Z M 82.609375 18.066406 " fill-opacity="1" fill-rule="nonzero"/><g clip-path="url(#0b3f1af352)"><path fill="#ffffff" d="M 84.238281 3.238281 L 82.523438 4.949219 C 81.226562 4.03125 79.335938 4.023438 77.414062 4.453125 C 76.9375 4.535156 76.449219 4.683594 75.964844 4.800781 C 75.480469 4.917969 75.003906 5.089844 74.519531 5.285156 C 73.5625 5.625 72.597656 6.019531 71.648438 6.449219 C 67.792969 8.269531 64.09375 10.363281 60.546875 12.726562 C 58.734375 13.878906 56.964844 15.105469 55.21875 16.378906 C 53.472656 17.652344 51.722656 18.917969 50.023438 20.265625 C 46.59375 22.933594 43.261719 25.714844 40.007812 28.613281 C 34.105469 33.824219 28.785156 39.574219 24.050781 45.863281 C 23.875 45.742188 23.699219 45.628906 23.515625 45.523438 C 24.253906 44.441406 25.015625 43.371094 25.796875 42.308594 C 27.082031 40.53125 28.398438 38.761719 29.773438 37.035156 C 32.484375 33.558594 35.332031 30.1875 38.292969 26.894531 C 44.230469 20.347656 50.757812 14.238281 58.144531 9.148438 C 61.851562 6.625 65.761719 4.328125 70.070312 2.6875 C 72.273438 1.8125 74.554688 1.25 76.910156 1 C 78.179688 0.871094 79.433594 0.9375 80.679688 1.207031 C 81.355469 1.363281 81.996094 1.597656 82.609375 1.921875 C 82.914062 2.097656 83.203125 2.289062 83.480469 2.5 C 83.746094 2.734375 84 2.980469 84.238281 3.238281 Z M 84.238281 3.238281 " fill-opacity="1" fill-rule="nonzero"/></g><g clip-path="url(#3a3a0efa44)"><path fill="#ffffff" d="M 40.613281 66.738281 C 36.910156 69.261719 32.996094 71.554688 28.6875 73.195312 C 26.484375 74.078125 24.203125 74.644531 21.84375 74.898438 C 20.574219 75.03125 19.3125 74.964844 18.066406 74.691406 C 17.402344 74.535156 16.769531 74.296875 16.167969 73.976562 C 15.867188 73.800781 15.578125 73.609375 15.296875 73.394531 C 15.03125 73.167969 14.777344 72.921875 14.542969 72.664062 C 13.691406 71.601562 13.21875 70.394531 13.117188 69.039062 C 13.015625 67.859375 13.097656 66.6875 13.359375 65.53125 C 13.449219 64.964844 13.621094 64.425781 13.769531 63.875 C 13.914062 63.328125 14.089844 62.796875 14.292969 62.28125 C 14.667969 61.226562 15.085938 60.203125 15.542969 59.191406 C 15.9375 58.335938 16.34375 57.492188 16.765625 56.660156 C 16.9375 56.777344 17.121094 56.878906 17.308594 56.96875 C 16.929688 57.796875 16.578125 58.636719 16.25 59.492188 C 15.441406 61.496094 14.925781 63.574219 14.703125 65.722656 C 14.601562 66.742188 14.667969 67.746094 14.902344 68.742188 C 15.09375 69.644531 15.542969 70.386719 16.257812 70.964844 C 17.5625 71.878906 19.445312 71.890625 21.371094 71.457031 C 21.84375 71.378906 22.335938 71.226562 22.8125 71.109375 C 23.289062 70.992188 23.78125 70.820312 24.261719 70.628906 C 25.222656 70.289062 26.1875 69.894531 27.136719 69.460938 C 30.984375 67.640625 34.675781 65.550781 38.214844 63.191406 C 40.027344 62.03125 41.800781 60.808594 43.542969 59.539062 C 45.285156 58.269531 47.042969 56.996094 48.734375 55.648438 C 52.164062 52.996094 55.503906 50.203125 58.757812 47.296875 C 64.804688 41.851562 70.476562 35.914062 75.28125 29.277344 L 75.507812 28.960938 C 75.769531 28.597656 76.027344 28.234375 76.28125 27.871094 C 77.195312 26.539062 78.078125 25.179688 78.90625 23.785156 L 79.335938 24.03125 C 78.496094 25.425781 77.625 26.804688 76.726562 28.167969 C 76.488281 28.546875 76.246094 28.914062 76 29.28125 C 75.929688 29.386719 75.855469 29.496094 75.789062 29.601562 C 74.882812 30.953125 73.949219 32.285156 72.984375 33.597656 C 71.6875 35.375 70.375 37.144531 69.003906 38.871094 C 66.292969 42.34375 63.449219 45.726562 60.480469 49.011719 C 54.523438 55.554688 48.007812 61.660156 40.613281 66.738281 Z M 40.613281 66.738281 " fill-opacity="1" fill-rule="nonzero"/></g><path fill="#ffffff" d="M 17.300781 56.980469 C 17.113281 56.890625 16.929688 56.789062 16.753906 56.671875 C 17.625 54.972656 18.566406 53.316406 19.550781 51.6875 L 19.960938 51.992188 C 18.980469 53.605469 18.097656 55.269531 17.300781 56.980469 Z M 17.300781 56.980469 " fill-opacity="1" fill-rule="nonzero"/><g fill="#ffffff" fill-opacity="1"><g transform="translate(91.687112, 50.526996)"><g><path d="M 6.953125 -24.175781 C 3.835938 -24.175781 1.289062 -21.859375 1.289062 -18.976562 L 1.289062 -0.0507812 C 1.289062 -0.0273438 1.289062 0 1.289062 0 L 11.5625 0 C 14.445312 0 16.761719 -2.523438 16.761719 -5.664062 L 6.953125 -5.664062 Z M 6.953125 -24.175781 "/></g></g></g><g fill="#ffffff" fill-opacity="1"><g transform="translate(109.812411, 50.526996)"><g><path d="M 6.617188 -9.628906 L 12.179688 -9.628906 L 13.441406 -14.933594 L 6.617188 -14.933594 L 6.617188 -18.589844 L 11.792969 -18.589844 C 14.960938 -18.589844 17.019531 -21.164062 17.019531 -24.304688 L 6.589844 -24.304688 C 3.5 -24.304688 1.003906 -21.808594 1.003906 -18.746094 L 1.003906 -5.511719 C 1.003906 -2.496094 3.449219 -0.0507812 6.460938 -0.0507812 L 10.195312 -0.0507812 C 13.363281 -0.0507812 15.785156 -2.601562 15.785156 -5.765625 L 6.617188 -5.765625 Z M 6.617188 -9.628906 "/></g></g></g><g fill="#ffffff" fill-opacity="1"><g transform="translate(127.911961, 50.526996)"><g><path d="M 16.324219 -19.027344 L 16.324219 -10.171875 L 6.539062 -24.28125 C 3.628906 -24.28125 1.289062 -21.9375 1.289062 -19.027344 L 1.289062 0.0507812 C 4.195312 0.0507812 6.539062 -2.292969 6.539062 -5.175781 L 6.539062 -14.933594 L 16.324219 -1.855469 L 16.324219 0.0507812 C 19.207031 0.0507812 21.707031 -2.316406 21.707031 -5.199219 L 21.707031 -24.28125 C 18.796875 -24.28125 16.324219 -21.9375 16.324219 -19.027344 Z M 16.324219 -19.027344 "/></g></g></g><g fill="#ffffff" fill-opacity="1"><g transform="translate(150.980524, 50.526996)"><g><path d="M 1.289062 -19.128906 L 1.289062 0.0507812 C 4.402344 0.0507812 6.898438 -2.265625 6.898438 -5.125 L 6.898438 -24.28125 C 3.8125 -24.28125 1.289062 -21.988281 1.289062 -19.128906 Z M 1.289062 -19.128906 "/></g></g></g><g fill="#ffffff" fill-opacity="1"><g transform="translate(159.270783, 50.526996)"><g><path d="M 5.070312 -24.125 C 2.1875 -24.125 -0.128906 -22.015625 -0.128906 -18.871094 L 6.589844 -18.871094 L 6.589844 -0.0507812 C 9.707031 -0.0507812 12.230469 -2.367188 12.230469 -5.253906 L 12.230469 -18.871094 L 13.75 -18.871094 C 16.605469 -18.871094 18.949219 -21.011719 18.949219 -24.125 Z M 5.070312 -24.125 "/></g></g></g><g fill="#ffffff" fill-opacity="1"><g transform="translate(178.142717, 50.526996)"><g><path d="M 18.5625 -22.089844 C 18.410156 -22.425781 18.152344 -22.761719 17.792969 -23.070312 C 16.8125 -24.023438 15.449219 -24.484375 13.980469 -24.613281 C 13.105469 -24.691406 10.554688 -24.742188 9.578125 -24.742188 C 8.523438 -24.742188 7.570312 -24.691406 6.644531 -24.613281 C 3.707031 -24.332031 1.289062 -22.273438 1.289062 -19.386719 L 1.289062 -4.945312 C 1.289062 -3.9375 1.570312 -3.039062 2.058594 -2.238281 C 2.214844 -1.90625 2.472656 -1.570312 2.832031 -1.261719 C 3.8125 -0.308594 5.175781 0.15625 6.644531 0.285156 C 7.519531 0.359375 8.445312 0.410156 9.421875 0.410156 C 10.480469 0.410156 13.054688 0.359375 13.980469 0.285156 C 16.917969 0 19.335938 -2.058594 19.335938 -4.945312 L 19.335938 -19.386719 C 19.335938 -20.390625 19.054688 -21.292969 18.5625 -22.089844 Z M 13.980469 -6.589844 C 13.851562 -5.792969 13.3125 -5.226562 12.488281 -5.226562 L 12.460938 -5.199219 L 8.136719 -5.199219 C 7.285156 -5.199219 6.773438 -5.792969 6.644531 -6.589844 L 6.644531 -17.894531 C 6.773438 -18.691406 7.285156 -19.257812 8.136719 -19.257812 L 12.488281 -19.257812 C 13.3125 -19.257812 13.851562 -18.691406 13.980469 -17.894531 Z M 13.980469 -6.589844 "/></g></g></g><g fill="#ffffff" fill-opacity="1"><g transform="translate(198.81689, 50.526996)"><g/></g></g><g fill="#ffffff" fill-opacity="1"><g transform="translate(206.540736, 50.526996)"><g><path d="M 14.109375 -21.035156 C 13.773438 -22.347656 13.078125 -23.25 11.945312 -23.894531 C 11.328125 -24.253906 10.660156 -24.433594 9.9375 -24.433594 C 9.21875 -24.433594 8.546875 -24.253906 7.957031 -23.894531 C 6.824219 -23.25 6.101562 -22.347656 5.792969 -21.035156 L 0.179688 -0.15625 C 3.089844 0.539062 5.949219 -1.03125 6.617188 -3.683594 L 6.898438 -4.839844 L 7.003906 -5.433594 L 12.875 -5.433594 L 13.003906 -4.839844 L 13.285156 -3.683594 C 13.929688 -1.03125 16.8125 0.539062 19.695312 -0.15625 Z M 11.972656 -9.757812 L 7.90625 -9.757812 L 9.9375 -17.585938 Z M 11.972656 -9.757812 "/></g></g></g><g fill="#ffffff" fill-opacity="1"><g transform="translate(226.54551, 50.526996)"><g><path d="M 14.703125 -8.136719 C 15.320312 -8.472656 15.886719 -8.855469 16.402344 -9.347656 C 17.199219 -10.09375 17.84375 -11.019531 18.304688 -12.128906 C 18.746094 -13.207031 18.976562 -14.496094 18.976562 -15.9375 L 18.976562 -16.015625 C 18.976562 -17.378906 18.769531 -18.589844 18.359375 -19.671875 C 17.945312 -20.753906 17.355469 -21.652344 16.582031 -22.398438 C 15.808594 -23.148438 14.882812 -23.714844 13.800781 -24.101562 C 12.695312 -24.484375 11.484375 -24.667969 10.144531 -24.667969 L 6.617188 -24.667969 C 3.964844 -24.667969 1.054688 -22.167969 1.054688 -19.078125 L 1.054688 -0.0507812 C 4.300781 -0.0507812 6.953125 -3.117188 6.953125 -6.875 L 6.953125 -7.082031 L 9.371094 -7.082031 L 12.566406 -2.34375 C 14.1875 0.078125 17.097656 0.644531 19.515625 -0.976562 Z M 6.953125 -12.4375 L 6.953125 -18.976562 L 9.707031 -18.976562 C 10.761719 -18.976562 11.613281 -18.691406 12.203125 -18.152344 C 12.796875 -17.585938 13.105469 -16.789062 13.105469 -15.730469 L 13.105469 -15.65625 C 13.105469 -14.648438 12.796875 -13.878906 12.203125 -13.285156 C 11.613281 -12.71875 10.789062 -12.4375 9.734375 -12.4375 Z M 6.953125 -12.4375 "/></g></g></g><g fill="#ffffff" fill-opacity="1"><g transform="translate(246.936476, 50.526996)"><g><path d="M 14.703125 -8.136719 C 15.320312 -8.472656 15.886719 -8.855469 16.402344 -9.347656 C 17.199219 -10.09375 17.84375 -11.019531 18.304688 -12.128906 C 18.746094 -13.207031 18.976562 -14.496094 18.976562 -15.9375 L 18.976562 -16.015625 C 18.976562 -17.378906 18.769531 -18.589844 18.359375 -19.671875 C 17.945312 -20.753906 17.355469 -21.652344 16.582031 -22.398438 C 15.808594 -23.148438 14.882812 -23.714844 13.800781 -24.101562 C 12.695312 -24.484375 11.484375 -24.667969 10.144531 -24.667969 L 6.617188 -24.667969 C 3.964844 -24.667969 1.054688 -22.167969 1.054688 -19.078125 L 1.054688 -0.0507812 C 4.300781 -0.0507812 6.953125 -3.117188 6.953125 -6.875 L 6.953125 -7.082031 L 9.371094 -7.082031 L 12.566406 -2.34375 C 14.1875 0.078125 17.097656 0.644531 19.515625 -0.976562 Z M 6.953125 -12.4375 L 6.953125 -18.976562 L 9.707031 -18.976562 C 10.761719 -18.976562 11.613281 -18.691406 12.203125 -18.152344 C 12.796875 -17.585938 13.105469 -16.789062 13.105469 -15.730469 L 13.105469 -15.65625 C 13.105469 -14.648438 12.796875 -13.878906 12.203125 -13.285156 C 11.613281 -12.71875 10.789062 -12.4375 9.734375 -12.4375 Z M 6.953125 -12.4375 "/></g></g></g><g fill="#ffffff" fill-opacity="1"><g transform="translate(267.327442, 50.526996)"><g><path d="M 15.707031 -23.558594 C 13.902344 -22.683594 12.640625 -20.957031 12.640625 -18.949219 L 12.640625 -6.078125 C 12.640625 -5.328125 12.050781 -4.6875 11.304688 -4.6875 C 11.304688 -4.6875 11.304688 -4.6875 11.277344 -4.6875 L 11.277344 -4.660156 L 10.582031 -4.6875 L 8.367188 -4.6875 C 7.957031 -4.6875 7.648438 -4.816406 7.390625 -5.019531 C 7.105469 -5.277344 6.976562 -5.640625 6.976562 -6.023438 L 6.976562 -18.949219 C 6.976562 -20.90625 5.792969 -22.632812 4.015625 -23.507812 C 3.21875 -23.917969 2.292969 -24.152344 1.289062 -24.152344 L 1.289062 -5.175781 C 1.289062 -3.8125 1.855469 -2.574219 2.78125 -1.648438 C 2.882812 -1.519531 2.988281 -1.417969 3.117188 -1.339844 C 4.066406 -0.386719 5.40625 0.078125 6.875 0.207031 C 7.75 0.285156 8.675781 0.335938 9.65625 0.335938 C 9.859375 0.335938 10.171875 0.335938 10.503906 0.335938 C 11.714844 0.308594 12.050781 0.257812 12.769531 0.207031 C 13.699219 0.128906 14.546875 -0.15625 15.320312 -0.539062 C 17.121094 -1.441406 18.332031 -3.167969 18.332031 -5.175781 L 18.332031 -24.152344 C 17.378906 -24.152344 16.503906 -23.945312 15.707031 -23.558594 Z M 15.707031 -23.558594 "/></g></g></g><g fill="#ffffff" fill-opacity="1"><g transform="translate(286.997499, 50.526996)"><g><path d="M 9.964844 -24.539062 L 6.644531 -24.539062 C 6.644531 -24.539062 6.644531 -24.539062 6.617188 -24.539062 L 6.050781 -24.539062 L 6.050781 -24.511719 C 3.191406 -24.226562 1.289062 -21.960938 1.289062 -19.234375 L 1.289062 0.101562 C 1.289062 0.101562 1.3125 0.101562 1.3125 0.101562 L 9.964844 0.101562 C 15.011719 0.101562 18.871094 -3.65625 18.871094 -8.109375 L 18.871094 -15.628906 C 18.871094 -21.292969 15.011719 -24.539062 9.964844 -24.539062 Z M 13.644531 -8.933594 C 13.644531 -6.898438 12 -5.097656 9.964844 -5.097656 L 6.644531 -5.097656 C 6.644531 -5.148438 6.644531 -5.175781 6.644531 -5.226562 L 6.644531 -19.335938 L 9.964844 -19.335938 C 12 -19.335938 13.644531 -17.535156 13.644531 -15.472656 Z M 13.644531 -8.933594 "/></g></g></g><g fill="#ffffff" fill-opacity="1"><g transform="translate(307.259719, 50.526996)"><g><path d="M 13.542969 -20.882812 C 13.207031 -22.167969 12.511719 -23.070312 11.378906 -23.714844 C 10.789062 -24.046875 10.117188 -24.253906 9.421875 -24.253906 C 8.703125 -24.253906 8.035156 -24.046875 7.441406 -23.714844 C 6.332031 -23.070312 5.613281 -22.167969 5.304688 -20.882812 L 0.15625 -0.207031 C 3.011719 0.488281 5.871094 -1.082031 6.515625 -3.707031 L 6.796875 -4.867188 L 6.898438 -5.433594 L 11.921875 -5.433594 L 12.023438 -4.867188 L 12.308594 -3.707031 C 12.949219 -1.082031 15.808594 0.488281 18.667969 -0.207031 Z M 7.800781 -9.734375 L 9.421875 -17.457031 L 11.019531 -9.734375 Z M 7.800781 -9.734375 "/></g></g></g></svg>