<svg xmlns="http://www.w3.org/2000/svg" xmlns:xlink="http://www.w3.org/1999/xlink" width="80" zoomAndPan="magnify" viewBox="0 0 60 48.75" height="65" preserveAspectRatio="xMidYMid meet" version="1.0"><defs><clipPath id="ddd44a7c63"><path d="M 16.3125 0 L 46.066406 0 L 46.066406 48.5 L 16.3125 48.5 Z M 16.3125 0 " clip-rule="nonzero"/></clipPath></defs><g clip-path="url(#ddd44a7c63)"><path fill="#64c5f1" d="M 40.246094 48.257812 C 41.792969 48.257812 43.34375 47.695312 44.46875 46.566406 C 45.597656 45.433594 46.160156 44.023438 46.160156 42.328125 C 46.160156 40.773438 45.597656 39.222656 44.46875 38.089844 L 30.671875 24.25 L 44.46875 10.410156 C 45.597656 9.28125 46.160156 7.867188 46.160156 6.171875 C 46.160156 4.621094 45.597656 3.066406 44.46875 1.9375 C 43.34375 0.808594 41.9375 0.242188 40.246094 0.242188 C 38.699219 0.242188 37.148438 0.808594 36.023438 1.9375 L 33.207031 4.761719 C 32.644531 5.324219 32.644531 6.171875 33.207031 6.738281 C 33.769531 7.304688 34.613281 7.304688 35.179688 6.738281 L 37.992188 3.914062 C 39.121094 2.785156 41.230469 2.785156 42.359375 3.914062 C 42.921875 4.480469 43.203125 5.324219 43.203125 6.171875 C 43.203125 7.019531 42.921875 7.726562 42.359375 8.433594 L 26.589844 24.25 L 42.5 40.066406 C 43.0625 40.632812 43.34375 41.480469 43.34375 42.328125 C 43.34375 43.175781 43.0625 43.882812 42.5 44.585938 C 41.371094 45.71875 39.261719 45.71875 38.132812 44.585938 L 19.972656 26.511719 C 19.410156 25.945312 19.128906 25.097656 19.128906 24.25 C 19.128906 23.402344 19.410156 22.695312 19.972656 21.992188 L 30.53125 11.398438 C 31.09375 10.835938 31.09375 9.988281 30.53125 9.421875 C 29.96875 8.855469 29.125 8.855469 28.5625 9.421875 L 18 20.015625 C 16.875 21.144531 16.3125 22.554688 16.3125 24.25 C 16.3125 25.945312 16.875 27.359375 18 28.488281 L 36.023438 46.566406 C 37.148438 47.695312 38.699219 48.257812 40.246094 48.257812 Z M 40.246094 48.257812 " fill-opacity="1" fill-rule="nonzero"/></g></svg>