<svg xmlns="http://www.w3.org/2000/svg" xmlns:xlink="http://www.w3.org/1999/xlink" width="80" zoomAndPan="magnify" viewBox="0 0 60 48.75" height="65" preserveAspectRatio="xMidYMid meet" version="1.0"><defs><clipPath id="f767987665"><path d="M 16.21875 0 L 46.066406 0 L 46.066406 48.5 L 16.21875 48.5 Z M 16.21875 0 " clip-rule="nonzero"/></clipPath></defs><g clip-path="url(#f767987665)"><path fill="#64c5f1" d="M 22.132812 48.257812 C 20.582031 48.257812 19.035156 47.695312 17.910156 46.566406 C 16.78125 45.433594 16.21875 44.023438 16.21875 42.328125 C 16.21875 40.773438 16.78125 39.222656 17.910156 38.089844 L 31.707031 24.25 L 17.910156 10.410156 C 16.78125 9.28125 16.21875 7.867188 16.21875 6.171875 C 16.21875 4.621094 16.78125 3.066406 17.910156 1.9375 C 19.035156 0.808594 20.441406 0.242188 22.132812 0.242188 C 23.679688 0.242188 25.230469 0.808594 26.355469 1.9375 L 29.171875 4.761719 C 29.734375 5.324219 29.734375 6.171875 29.171875 6.738281 C 28.609375 7.304688 27.765625 7.304688 27.199219 6.738281 L 24.386719 3.914062 C 23.257812 2.785156 21.148438 2.785156 20.019531 3.914062 C 19.457031 4.480469 19.175781 5.324219 19.175781 6.171875 C 19.175781 7.019531 19.457031 7.726562 20.019531 8.433594 L 35.789062 24.25 L 19.878906 40.066406 C 19.316406 40.632812 19.035156 41.480469 19.035156 42.328125 C 19.035156 43.175781 19.316406 43.882812 19.878906 44.585938 C 21.007812 45.71875 23.117188 45.71875 24.242188 44.585938 L 42.40625 26.511719 C 42.96875 25.945312 43.25 25.097656 43.25 24.25 C 43.25 23.402344 42.96875 22.695312 42.40625 21.992188 L 31.847656 11.398438 C 31.285156 10.835938 31.285156 9.988281 31.847656 9.421875 C 32.410156 8.855469 33.253906 8.855469 33.816406 9.421875 L 44.375 20.015625 C 45.503906 21.144531 46.066406 22.554688 46.066406 24.25 C 46.066406 25.945312 45.503906 27.359375 44.375 28.488281 L 26.355469 46.566406 C 25.230469 47.695312 23.679688 48.257812 22.132812 48.257812 Z M 22.132812 48.257812 " fill-opacity="1" fill-rule="nonzero"/></g></svg>