<svg xmlns="http://www.w3.org/2000/svg" xmlns:xlink="http://www.w3.org/1999/xlink" width="500" zoomAndPan="magnify" viewBox="0 0 375 374.999991" height="500" preserveAspectRatio="xMidYMid meet" version="1.0"><defs><clipPath id="557c104484"><path d="M 0 3.046875 L 346 3.046875 L 346 350 L 0 350 Z M 0 3.046875 " clip-rule="nonzero"/></clipPath></defs><path fill="#ffffff" d="M 362.257812 357.976562 C 361.515625 358.71875 360.738281 359.421875 359.925781 360.085938 C 359.117188 360.753906 358.273438 361.375 357.402344 361.957031 C 356.53125 362.539062 355.632812 363.078125 354.707031 363.574219 C 353.78125 364.066406 352.835938 364.515625 351.867188 364.917969 C 350.898438 365.316406 349.910156 365.671875 348.90625 365.972656 C 347.902344 366.277344 346.886719 366.53125 345.859375 366.738281 C 344.828125 366.941406 343.792969 367.09375 342.75 367.199219 C 341.707031 367.300781 340.660156 367.351562 339.613281 367.351562 C 338.5625 367.351562 337.515625 367.300781 336.472656 367.199219 C 335.429688 367.09375 334.394531 366.941406 333.363281 366.738281 C 332.335938 366.53125 331.320312 366.277344 330.316406 365.972656 C 329.3125 365.671875 328.328125 365.316406 327.355469 364.917969 C 326.386719 364.515625 325.441406 364.066406 324.515625 363.574219 C 323.589844 363.078125 322.691406 362.539062 321.820312 361.957031 C 320.949219 361.375 320.105469 360.753906 319.296875 360.085938 C 318.484375 359.421875 317.707031 358.71875 316.964844 357.976562 C 314.367188 355.394531 312.277344 352.445312 310.703125 349.136719 C 314.917969 349.359375 319.085938 349.019531 323.210938 348.117188 C 325.925781 347.589844 328.496094 346.664062 330.925781 345.347656 C 333.355469 344.03125 335.53125 342.378906 337.457031 340.394531 L 335.582031 338.519531 C 333.734375 340.082031 331.691406 341.332031 329.460938 342.265625 C 327.226562 343.199219 324.902344 343.773438 322.492188 343.988281 C 317.804688 344.503906 313.148438 344.289062 308.527344 343.347656 C 308.351562 342.671875 308.195312 341.992188 308.0625 341.304688 C 307.933594 340.621094 307.820312 339.929688 307.734375 339.238281 C 307.648438 338.542969 307.582031 337.847656 307.542969 337.152344 C 307.5 336.453125 307.480469 335.753906 307.484375 335.058594 C 307.492188 334.359375 307.515625 333.660156 307.566406 332.964844 C 307.617188 332.265625 307.6875 331.574219 307.785156 330.878906 C 307.878906 330.1875 307.996094 329.5 308.136719 328.816406 C 308.277344 328.132812 308.441406 327.453125 308.625 326.777344 C 308.808594 326.105469 309.015625 325.4375 309.242188 324.777344 C 309.472656 324.117188 309.722656 323.464844 309.992188 322.820312 C 310.261719 322.175781 310.554688 321.542969 310.867188 320.917969 C 311.179688 320.292969 311.511719 319.675781 311.863281 319.074219 C 312.214844 318.472656 312.585938 317.878906 312.980469 317.300781 C 313.371094 316.722656 313.777344 316.15625 314.207031 315.605469 C 314.636719 315.050781 315.082031 314.515625 315.542969 313.992188 C 316.007812 313.46875 316.488281 312.960938 316.984375 312.46875 C 317.480469 311.980469 317.992188 311.503906 318.519531 311.046875 C 319.046875 310.585938 319.589844 310.148438 320.144531 309.726562 C 320.699219 309.300781 321.269531 308.898438 321.851562 308.511719 C 322.433594 308.128906 323.03125 307.761719 323.636719 307.414062 C 324.242188 307.066406 324.859375 306.742188 325.488281 306.4375 C 326.117188 306.128906 326.753906 305.84375 327.398438 305.578125 C 328.046875 305.316406 328.699219 305.074219 329.363281 304.851562 C 330.023438 304.628906 330.695312 304.429688 331.371094 304.25 C 332.042969 304.074219 332.726562 303.917969 333.410156 303.785156 C 334.097656 303.652344 334.785156 303.539062 335.480469 303.453125 C 336.171875 303.363281 336.867188 303.296875 337.5625 303.253906 C 338.261719 303.210938 338.957031 303.191406 339.65625 303.195312 C 340.355469 303.199219 341.054688 303.222656 341.75 303.273438 C 342.445312 303.320312 343.140625 303.390625 343.832031 303.484375 C 344.527344 303.578125 345.214844 303.695312 345.898438 303.835938 C 346.582031 303.972656 347.261719 304.136719 347.9375 304.320312 C 348.609375 304.5 349.277344 304.707031 349.9375 304.933594 C 350.597656 305.160156 351.25 305.410156 351.894531 305.679688 C 352.539062 305.949219 353.175781 306.238281 353.800781 306.550781 C 354.425781 306.863281 355.039062 307.191406 355.644531 307.542969 C 356.246094 307.894531 356.839844 308.265625 357.417969 308.65625 C 358 309.046875 358.5625 309.453125 359.117188 309.882812 C 359.667969 310.308594 360.207031 310.753906 360.730469 311.214844 C 361.253906 311.679688 361.761719 312.15625 362.257812 312.652344 C 362.75 313.148438 363.222656 313.660156 363.683594 314.1875 C 364.140625 314.714844 364.582031 315.253906 365.007812 315.808594 C 365.429688 316.367188 365.835938 316.933594 366.222656 317.515625 C 366.609375 318.097656 366.976562 318.691406 367.324219 319.296875 C 367.671875 319.90625 367.996094 320.519531 368.304688 321.148438 C 368.613281 321.777344 368.898438 322.414062 369.164062 323.058594 C 369.429688 323.707031 369.671875 324.359375 369.894531 325.023438 C 370.121094 325.683594 370.320312 326.351562 370.5 327.027344 C 370.679688 327.703125 370.835938 328.382812 370.96875 329.070312 C 371.105469 329.753906 371.214844 330.445312 371.304688 331.136719 C 371.394531 331.828125 371.460938 332.523438 371.507812 333.222656 C 371.550781 333.917969 371.570312 334.617188 371.570312 335.316406 C 371.570312 336.015625 371.542969 336.710938 371.496094 337.410156 C 371.449219 338.105469 371.378906 338.800781 371.289062 339.492188 C 371.195312 340.1875 371.082031 340.875 370.941406 341.558594 C 370.804688 342.246094 370.644531 342.925781 370.464844 343.597656 C 370.28125 344.273438 370.078125 344.941406 369.851562 345.601562 C 369.625 346.265625 369.378906 346.917969 369.109375 347.5625 C 368.84375 348.207031 368.550781 348.84375 368.242188 349.46875 C 367.933594 350.09375 367.601562 350.710938 367.253906 351.316406 C 366.902344 351.917969 366.53125 352.511719 366.144531 353.089844 C 365.753906 353.671875 365.347656 354.238281 364.921875 354.792969 C 364.496094 355.347656 364.050781 355.886719 363.589844 356.410156 C 363.128906 356.933594 362.652344 357.445312 362.15625 357.9375 Z M 362.257812 357.976562 " fill-opacity="1" fill-rule="nonzero"/><path fill="#ffffff" d="M 337.535156 340.414062 C 335.613281 342.398438 333.433594 344.050781 331.003906 345.367188 C 328.574219 346.683594 326.003906 347.609375 323.289062 348.136719 C 319.167969 349.039062 314.996094 349.378906 310.78125 349.15625 C 309.929688 347.304688 309.265625 345.390625 308.785156 343.410156 C 313.410156 344.347656 318.0625 344.5625 322.753906 344.046875 C 325.164062 343.832031 327.484375 343.257812 329.71875 342.324219 C 331.953125 341.390625 333.992188 340.144531 335.839844 338.578125 Z M 337.535156 340.414062 " fill-opacity="1" fill-rule="nonzero"/><g clip-path="url(#557c104484)"><path fill="#ffffff" d="M 337.535156 340.414062 C 335.613281 342.398438 333.433594 344.050781 331.003906 345.367188 C 328.574219 346.683594 326.003906 347.609375 323.289062 348.136719 C 319.167969 349.039062 314.996094 349.378906 310.78125 349.15625 C 309.585938 349.15625 308.40625 349.015625 307.210938 348.917969 C 305.871094 348.855469 304.539062 348.710938 303.21875 348.476562 L 299.230469 347.859375 C 296.65625 347.261719 294.003906 346.839844 291.46875 346.121094 C 288.933594 345.40625 286.359375 344.765625 283.867188 343.929688 C 281.371094 343.089844 278.878906 342.269531 276.382812 341.394531 C 256.632812 334.167969 238.296875 323.992188 220.519531 313.074219 C 185.355469 290.480469 152.835938 264.570312 122.957031 235.34375 C 107.972656 220.875 93.507812 205.847656 79.960938 189.941406 C 73.125 182.050781 66.472656 173.96875 60.007812 165.695312 C 53.664062 157.511719 47.460938 149.070312 41.515625 140.347656 C 29.300781 122.816406 18.953125 104.242188 10.46875 84.628906 C 9.453125 82.09375 8.472656 79.582031 7.515625 76.964844 C 6.558594 74.351562 5.660156 71.757812 4.863281 68.984375 C 4.0625 66.210938 3.386719 63.714844 2.648438 60.921875 C 1.910156 58.128906 1.429688 55.292969 1.089844 52.300781 C 0.09375 46.027344 0.09375 39.753906 1.089844 33.480469 C 1.652344 29.757812 2.765625 26.207031 4.425781 22.828125 C 6.089844 19.449219 8.222656 16.402344 10.828125 13.683594 C 13.546875 11.082031 16.597656 8.949219 19.972656 7.289062 C 23.351562 5.625 26.898438 4.511719 30.621094 3.945312 C 36.886719 2.957031 43.148438 2.957031 49.414062 3.945312 C 52.425781 4.265625 55.160156 4.960938 58.035156 5.5 C 60.90625 6.039062 63.582031 6.839844 66.195312 7.738281 C 68.808594 8.632812 71.519531 9.394531 74.175781 10.371094 C 76.828125 11.347656 79.300781 12.367188 81.816406 13.34375 C 101.414062 21.816406 119.96875 32.160156 137.480469 44.378906 C 146.179688 50.363281 154.621094 56.550781 162.878906 62.976562 C 171.140625 69.402344 179.238281 76.027344 187.140625 82.933594 C 203.101562 96.484375 218.046875 110.875 232.53125 125.941406 C 261.679688 155.800781 287.542969 188.277344 310.121094 223.371094 C 321.035156 241.128906 331.171875 259.492188 338.414062 279.25 C 339.3125 281.722656 340.210938 284.175781 340.949219 286.730469 C 341.6875 289.285156 342.484375 291.78125 343.144531 294.335938 C 343.800781 296.890625 344.300781 299.484375 344.898438 302.078125 C 344.898438 302.597656 345.039062 303.15625 345.136719 303.675781 C 342.972656 303.304688 340.789062 303.15625 338.59375 303.234375 C 336.542969 296.085938 333.941406 289.140625 330.792969 282.402344 C 322.046875 264.101562 311.660156 246.785156 299.628906 230.453125 C 287.863281 213.914062 275.226562 198.066406 261.71875 182.917969 C 248.246094 167.683594 234.199219 153 219.582031 138.871094 C 190.171875 110.933594 159.128906 84.492188 125.449219 62.519531 C 108.570312 51.601562 91.234375 41.363281 73.257812 34.097656 C 71.023438 33.203125 68.769531 32.261719 66.511719 31.546875 C 64.257812 30.828125 62.003906 29.988281 59.789062 29.328125 C 57.574219 28.671875 55.28125 28.152344 53.046875 27.554688 C 50.8125 26.953125 48.617188 26.597656 46.480469 26.417969 C 42.492188 25.796875 38.5 25.796875 34.511719 26.417969 C 31.675781 26.78125 29.179688 27.90625 27.027344 29.789062 C 25.089844 31.941406 23.933594 34.457031 23.558594 37.332031 C 22.917969 41.324219 22.917969 45.316406 23.558594 49.304688 C 23.738281 51.441406 24.296875 53.675781 24.675781 55.890625 C 25.054688 58.109375 25.710938 60.363281 26.46875 62.617188 C 27.226562 64.871094 27.828125 67.128906 28.664062 69.363281 C 29.503906 71.597656 30.339844 73.851562 31.21875 76.109375 C 38.5 94.070312 48.734375 111.433594 59.628906 128.234375 C 81.597656 161.941406 108.09375 192.976562 136.023438 222.390625 C 150.125 237.027344 164.796875 251.082031 180.039062 264.558594 C 195.195312 278.097656 211.039062 290.785156 227.5625 302.617188 C 243.917969 314.640625 261.253906 325.019531 279.578125 333.75 C 286.515625 337.007812 293.679688 339.671875 301.066406 341.734375 C 303.320312 342.351562 305.613281 342.851562 307.929688 343.25 L 308.667969 343.390625 C 313.289062 344.328125 317.945312 344.542969 322.632812 344.027344 C 325.042969 343.8125 327.367188 343.238281 329.597656 342.304688 C 331.832031 341.371094 333.875 340.125 335.722656 338.558594 Z M 337.535156 340.414062 " fill-opacity="1" fill-rule="nonzero"/></g><path fill="#ffffff" d="M 66.492188 277.253906 C 65.3125 278.441406 64.042969 279.535156 62.691406 280.523438 C 61.335938 281.515625 59.914062 282.394531 58.421875 283.160156 C 56.929688 283.925781 55.390625 284.570312 53.796875 285.09375 C 52.203125 285.617188 50.578125 286.015625 48.921875 286.28125 C 47.265625 286.546875 45.601562 286.683594 43.921875 286.6875 C 42.246094 286.695312 40.578125 286.566406 38.921875 286.308594 C 37.265625 286.050781 35.636719 285.664062 34.042969 285.148438 C 32.445312 284.632812 30.898438 283.996094 29.402344 283.238281 C 33.234375 274.78125 37.519531 266.558594 42.25 258.574219 L 40.257812 257.074219 C 35.410156 265.058594 30.820312 273.242188 26.550781 281.601562 C 24.597656 280.351562 22.808594 278.902344 21.183594 277.253906 C 20.492188 276.574219 19.835938 275.867188 19.210938 275.128906 C 18.585938 274.390625 17.996094 273.625 17.441406 272.835938 C 16.882812 272.042969 16.363281 271.226562 15.882812 270.390625 C 15.402344 269.550781 14.957031 268.695312 14.554688 267.816406 C 14.148438 266.9375 13.785156 266.042969 13.460938 265.128906 C 13.136719 264.21875 12.855469 263.296875 12.617188 262.359375 C 12.375 261.421875 12.179688 260.476562 12.023438 259.519531 C 11.871094 258.566406 11.757812 257.605469 11.691406 256.640625 C 11.625 255.675781 11.601562 254.710938 11.621094 253.742188 C 11.640625 252.777344 11.703125 251.8125 11.8125 250.851562 C 11.917969 249.890625 12.070312 248.9375 12.261719 247.988281 C 12.457031 247.042969 12.691406 246.105469 12.972656 245.179688 C 13.25 244.253906 13.570312 243.339844 13.929688 242.445312 C 14.292969 241.546875 14.691406 240.667969 15.132812 239.804688 C 15.574219 238.945312 16.050781 238.105469 16.566406 237.289062 C 17.082031 236.472656 17.636719 235.679688 18.222656 234.910156 C 18.8125 234.144531 19.433594 233.402344 20.089844 232.691406 C 20.746094 231.980469 21.429688 231.300781 22.148438 230.652344 C 22.863281 230.003906 23.609375 229.386719 24.378906 228.804688 C 25.152344 228.222656 25.949219 227.675781 26.769531 227.167969 C 27.59375 226.65625 28.4375 226.1875 29.300781 225.753906 C 30.164062 225.320312 31.046875 224.925781 31.945312 224.574219 C 32.847656 224.21875 33.761719 223.90625 34.6875 223.636719 C 35.617188 223.367188 36.554688 223.136719 37.503906 222.953125 C 38.453125 222.765625 39.410156 222.625 40.371094 222.527344 C 41.332031 222.425781 42.296875 222.371094 43.265625 222.359375 C 44.230469 222.347656 45.195312 222.378906 46.160156 222.453125 C 47.125 222.53125 48.082031 222.648438 49.035156 222.8125 C 49.988281 222.972656 50.933594 223.179688 51.867188 223.425781 C 52.800781 223.675781 53.722656 223.964844 54.632812 224.296875 C 55.539062 224.625 56.429688 224.996094 57.304688 225.410156 C 58.179688 225.820312 59.035156 226.273438 59.871094 226.761719 C 60.765625 227.28125 61.625 227.839844 62.484375 228.4375 C 63.898438 229.464844 65.230469 230.597656 66.472656 231.832031 C 67.21875 232.574219 67.925781 233.351562 68.597656 234.164062 C 69.265625 234.972656 69.894531 235.816406 70.480469 236.691406 C 71.066406 237.566406 71.609375 238.464844 72.105469 239.394531 C 72.601562 240.320312 73.054688 241.269531 73.457031 242.242188 C 73.863281 243.214844 74.21875 244.203125 74.523438 245.210938 C 74.832031 246.21875 75.085938 247.234375 75.292969 248.269531 C 75.5 249.300781 75.65625 250.339844 75.757812 251.386719 C 75.863281 252.433594 75.914062 253.484375 75.914062 254.539062 C 75.917969 255.589844 75.863281 256.640625 75.761719 257.6875 C 75.660156 258.734375 75.503906 259.773438 75.300781 260.808594 C 75.09375 261.839844 74.839844 262.859375 74.53125 263.867188 C 74.226562 264.875 73.871094 265.863281 73.46875 266.835938 C 73.066406 267.808594 72.617188 268.757812 72.117188 269.683594 C 71.621094 270.613281 71.082031 271.515625 70.496094 272.386719 C 69.910156 273.261719 69.28125 274.105469 68.613281 274.917969 C 67.945312 275.730469 67.238281 276.507812 66.492188 277.253906 Z M 66.492188 277.253906 " fill-opacity="1" fill-rule="nonzero"/><path fill="#ffffff" d="M 29.402344 283.121094 C 28.476562 282.675781 27.585938 282.171875 26.730469 281.601562 C 31 273.242188 35.609375 265.097656 40.4375 257.074219 L 42.429688 258.574219 C 37.640625 266.515625 33.296875 274.699219 29.402344 283.121094 Z M 29.402344 283.121094 " fill-opacity="1" fill-rule="nonzero"/><path fill="#ffffff" d="M 355.953125 141.886719 C 354.703125 143.132812 353.363281 144.269531 351.925781 145.296875 C 350.492188 146.320312 348.980469 147.222656 347.398438 148 C 345.8125 148.777344 344.175781 149.417969 342.488281 149.925781 C 340.796875 150.429688 339.078125 150.796875 337.328125 151.019531 C 335.578125 151.242188 333.820312 151.320312 332.058594 151.253906 C 330.292969 151.1875 328.550781 150.980469 326.820312 150.625 C 325.09375 150.269531 323.40625 149.777344 321.757812 149.144531 C 320.113281 148.511719 318.527344 147.75 317.007812 146.855469 C 318.222656 145.039062 319.402344 143.222656 320.578125 141.386719 C 324.96875 134.734375 329.230469 127.949219 333.367188 121.03125 L 331.25 119.8125 C 327.261719 126.679688 322.871094 133.363281 318.382812 139.910156 C 317.144531 141.707031 315.890625 143.503906 314.59375 145.277344 C 313.164062 144.269531 311.835938 143.144531 310.601562 141.90625 C 309.945312 141.25 309.324219 140.566406 308.726562 139.855469 C 308.132812 139.144531 307.570312 138.410156 307.039062 137.648438 C 306.507812 136.890625 306.007812 136.109375 305.542969 135.304688 C 305.082031 134.503906 304.652344 133.679688 304.261719 132.839844 C 303.867188 132 303.511719 131.144531 303.195312 130.273438 C 302.878906 129.402344 302.597656 128.519531 302.355469 127.625 C 302.113281 126.730469 301.914062 125.828125 301.75 124.914062 C 301.585938 124 301.460938 123.082031 301.378906 122.160156 C 301.296875 121.238281 301.253906 120.3125 301.25 119.382812 C 301.246094 118.457031 301.285156 117.53125 301.359375 116.605469 C 301.4375 115.683594 301.554688 114.765625 301.710938 113.851562 C 301.867188 112.9375 302.066406 112.03125 302.300781 111.136719 C 302.535156 110.238281 302.808594 109.351562 303.121094 108.480469 C 303.433594 107.605469 303.785156 106.75 304.167969 105.90625 C 304.554688 105.0625 304.980469 104.238281 305.4375 103.433594 C 305.894531 102.628906 306.386719 101.84375 306.914062 101.078125 C 307.441406 100.316406 308 99.578125 308.589844 98.863281 C 309.179688 98.148438 309.800781 97.460938 310.449219 96.800781 C 311.097656 96.136719 311.777344 95.507812 312.480469 94.90625 C 313.1875 94.300781 313.914062 93.730469 314.671875 93.191406 C 315.425781 92.652344 316.199219 92.148438 317 91.675781 C 317.796875 91.207031 318.613281 90.769531 319.449219 90.371094 C 320.285156 89.96875 321.136719 89.605469 322.003906 89.277344 C 322.871094 88.953125 323.753906 88.664062 324.644531 88.414062 C 325.539062 88.164062 326.4375 87.953125 327.351562 87.78125 C 328.261719 87.609375 329.179688 87.476562 330.101562 87.382812 C 331.023438 87.292969 331.945312 87.238281 332.875 87.226562 C 333.800781 87.214844 334.726562 87.242188 335.652344 87.3125 C 336.574219 87.378906 337.496094 87.488281 338.410156 87.636719 C 339.324219 87.785156 340.230469 87.972656 341.128906 88.199219 C 342.027344 88.425781 342.917969 88.691406 343.792969 88.996094 C 344.667969 89.296875 345.527344 89.640625 346.375 90.019531 C 347.449219 90.507812 348.492188 91.054688 349.507812 91.65625 C 350.035156 91.960938 350.554688 92.28125 351.066406 92.617188 C 351.578125 92.953125 352.078125 93.300781 352.566406 93.667969 C 353.058594 94.03125 353.535156 94.410156 354.003906 94.800781 C 354.472656 95.191406 354.929688 95.597656 355.375 96.015625 C 355.820312 96.433594 356.253906 96.863281 356.675781 97.304688 C 357.09375 97.75 357.503906 98.203125 357.898438 98.671875 C 358.292969 99.136719 358.671875 99.613281 359.039062 100.101562 C 359.40625 100.589844 359.757812 101.089844 360.097656 101.597656 C 360.4375 102.105469 360.757812 102.621094 361.070312 103.148438 C 361.378906 103.675781 361.671875 104.210938 361.949219 104.753906 C 362.226562 105.300781 362.488281 105.851562 362.734375 106.410156 C 362.980469 106.96875 363.210938 107.535156 363.425781 108.105469 C 363.640625 108.679688 363.839844 109.257812 364.019531 109.839844 C 364.199219 110.421875 364.363281 111.011719 364.511719 111.605469 C 364.65625 112.195312 364.789062 112.792969 364.902344 113.394531 C 365.015625 113.992188 365.109375 114.597656 365.1875 115.203125 C 365.265625 115.808594 365.328125 116.414062 365.371094 117.023438 C 365.414062 117.632812 365.441406 118.246094 365.449219 118.855469 C 365.457031 119.464844 365.449219 120.078125 365.421875 120.6875 C 365.394531 121.296875 365.351562 121.90625 365.289062 122.515625 C 365.226562 123.121094 365.148438 123.726562 365.050781 124.332031 C 364.957031 124.933594 364.84375 125.535156 364.710938 126.128906 C 364.582031 126.726562 364.433594 127.320312 364.269531 127.90625 C 364.105469 128.496094 363.921875 129.078125 363.726562 129.65625 C 363.527344 130.234375 363.3125 130.804688 363.082031 131.371094 C 362.851562 131.9375 362.605469 132.496094 362.339844 133.046875 C 362.078125 133.597656 361.800781 134.140625 361.503906 134.675781 C 361.210938 135.210938 360.902344 135.738281 360.578125 136.253906 C 360.253906 136.773438 359.914062 137.28125 359.5625 137.777344 C 359.207031 138.277344 358.839844 138.765625 358.457031 139.242188 C 358.078125 139.71875 357.683594 140.183594 357.273438 140.640625 C 356.867188 141.09375 356.445312 141.535156 356.011719 141.964844 Z M 355.953125 141.886719 " fill-opacity="1" fill-rule="nonzero"/><path fill="#ffffff" d="M 317.027344 146.855469 C 316.207031 146.375 315.410156 145.816406 314.613281 145.257812 C 315.910156 143.480469 317.164062 141.6875 318.402344 139.890625 C 322.890625 133.34375 327.222656 126.660156 331.273438 119.792969 L 333.386719 121.011719 C 329.261719 127.863281 325 134.648438 320.597656 141.367188 C 319.421875 143.242188 318.242188 145.039062 317.027344 146.855469 Z M 317.027344 146.855469 " fill-opacity="1" fill-rule="nonzero"/><path fill="#ffffff" d="M 349.507812 91.65625 C 348.523438 91.078125 347.511719 90.550781 346.476562 90.078125 C 347.414062 87.902344 348.269531 85.746094 349.089844 83.574219 C 353.039062 73.71875 355.566406 63.515625 356.671875 52.957031 C 357.1875 47.933594 356.859375 42.964844 355.691406 38.050781 C 355.238281 35.914062 354.4375 33.914062 353.292969 32.050781 C 352.148438 30.1875 350.726562 28.570312 349.027344 27.195312 L 357.488281 18.714844 C 359.527344 21.257812 361.144531 24.046875 362.335938 27.082031 C 363.53125 30.117188 364.25 33.261719 364.492188 36.515625 C 364.984375 42.339844 364.578125 48.097656 363.273438 53.796875 C 362.835938 56.570312 362.015625 59.246094 361.277344 61.917969 C 360.539062 64.59375 359.703125 67.226562 358.726562 69.78125 C 356.910156 74.949219 354.855469 80 352.601562 84.949219 C 351.503906 87.183594 350.546875 89.417969 349.507812 91.65625 Z M 349.507812 91.65625 " fill-opacity="1" fill-rule="nonzero"/><path fill="#ffffff" d="M 357.488281 18.714844 L 349.089844 27.113281 C 342.722656 22.605469 333.464844 22.566406 324.050781 24.679688 C 321.714844 25.078125 319.320312 25.816406 316.945312 26.394531 C 314.570312 26.976562 312.238281 27.8125 309.863281 28.769531 C 305.15625 30.449219 300.425781 32.382812 295.777344 34.5 C 276.882812 43.460938 258.746094 53.757812 241.371094 65.390625 C 232.492188 71.058594 223.8125 77.085938 215.253906 83.351562 C 206.695312 89.621094 198.113281 95.84375 189.792969 102.472656 C 172.976562 115.601562 156.65625 129.292969 140.695312 143.542969 C 111.757812 169.195312 85.6875 197.484375 62.484375 228.417969 C 61.625 227.820312 60.765625 227.261719 59.871094 226.742188 C 63.488281 221.421875 67.210938 216.152344 71.042969 210.9375 C 77.347656 202.195312 83.792969 193.472656 90.535156 184.992188 C 103.824219 167.890625 117.789062 151.304688 132.292969 135.101562 C 161.402344 102.890625 193.386719 72.835938 229.597656 47.789062 C 247.753906 35.375 266.925781 24.0625 288.054688 16 C 298.851562 11.699219 310.023438 8.933594 321.574219 7.695312 C 327.789062 7.054688 333.945312 7.394531 340.050781 8.714844 C 343.355469 9.472656 346.507812 10.644531 349.507812 12.226562 C 350.992188 13.085938 352.414062 14.039062 353.777344 15.082031 C 355.078125 16.226562 356.316406 17.4375 357.488281 18.714844 Z M 357.488281 18.714844 " fill-opacity="1" fill-rule="nonzero"/><path fill="#ffffff" d="M 143.667969 331.136719 C 125.511719 343.546875 106.335938 354.824219 85.207031 362.886719 C 74.414062 367.230469 63.234375 370.023438 51.667969 371.269531 C 45.441406 371.929688 39.269531 371.59375 33.152344 370.25 C 29.902344 369.480469 26.804688 368.3125 23.855469 366.738281 C 22.371094 365.878906 20.949219 364.925781 19.585938 363.882812 C 18.277344 362.757812 17.039062 361.550781 15.875 360.273438 C 13.84375 357.722656 12.230469 354.925781 11.039062 351.886719 C 9.851562 348.851562 9.132812 345.703125 8.894531 342.449219 C 8.394531 336.632812 8.792969 330.878906 10.089844 325.1875 C 10.527344 322.394531 11.367188 319.742188 12.085938 317.046875 C 12.804688 314.351562 13.660156 311.738281 14.660156 309.203125 C 16.496094 304.015625 18.550781 298.964844 20.785156 293.996094 C 22.710938 289.792969 24.707031 285.640625 26.769531 281.542969 C 27.625 282.109375 28.515625 282.617188 29.441406 283.058594 C 27.582031 287.132812 25.851562 291.269531 24.253906 295.472656 C 20.285156 305.332031 17.757812 315.550781 16.675781 326.125 C 16.167969 331.136719 16.492188 336.09375 17.652344 340.996094 C 18.101562 343.144531 18.898438 345.15625 20.035156 347.03125 C 21.175781 348.90625 22.597656 350.539062 24.296875 351.929688 C 30.679688 356.421875 39.917969 356.480469 49.355469 354.34375 C 51.667969 353.964844 54.082031 353.207031 56.417969 352.628906 C 58.75 352.050781 61.167969 351.210938 63.519531 350.273438 C 68.230469 348.597656 72.957031 346.660156 77.605469 344.527344 C 96.464844 335.574219 114.566406 325.289062 131.914062 313.671875 C 140.792969 307.964844 149.492188 301.957031 158.03125 295.710938 C 166.570312 289.464844 175.191406 283.199219 183.46875 276.574219 C 200.289062 263.523438 216.648438 249.773438 232.589844 235.484375 C 262.238281 208.679688 290.03125 179.464844 313.59375 146.816406 L 314.691406 145.257812 C 315.988281 143.480469 317.246094 141.6875 318.484375 139.890625 C 322.972656 133.34375 327.300781 126.660156 331.351562 119.792969 L 333.464844 121.011719 C 329.34375 127.863281 325.078125 134.648438 320.675781 141.367188 C 319.5 143.222656 318.324219 145.039062 317.105469 146.835938 C 316.765625 147.355469 316.40625 147.894531 316.070312 148.410156 C 311.640625 155.0625 307.058594 161.617188 302.320312 168.070312 C 295.976562 176.808594 289.53125 185.53125 282.828125 194.011719 C 269.527344 211.109375 255.601562 227.738281 241.050781 243.90625 C 211.839844 276.09375 179.917969 306.148438 143.667969 331.136719 Z M 143.667969 331.136719 " fill-opacity="1" fill-rule="nonzero"/><path fill="#ffffff" d="M 29.402344 283.121094 C 28.476562 282.675781 27.585938 282.171875 26.730469 281.601562 C 31 273.242188 35.609375 265.097656 40.4375 257.074219 L 42.429688 258.574219 C 37.640625 266.515625 33.296875 274.699219 29.402344 283.121094 Z M 29.402344 283.121094 " fill-opacity="1" fill-rule="nonzero"/></svg>